<mxfile host="65bd71144e">
    <diagram id="igLSvl1rxOK1qJQzjv5_" name="Page-1">
        <mxGraphModel dx="1695" dy="405" grid="1" gridSize="10" guides="1" tooltips="1" connect="1" arrows="1" fold="1" page="1" pageScale="1" pageWidth="850" pageHeight="1100" background="none" math="0" shadow="0">
            <root>
                <mxCell id="0"/>
                <mxCell id="1" parent="0"/>
                <mxCell id="2" value="&lt;div&gt;new node address-&amp;gt; 0x6f7900&lt;/div&gt;&lt;div&gt;new node data-&amp;gt; 1&lt;/div&gt;&lt;div&gt;new node next-&amp;gt; 0&lt;/div&gt;" style="rounded=0;whiteSpace=wrap;html=1;" vertex="1" parent="1">
                    <mxGeometry x="30" y="260" width="180" height="60" as="geometry"/>
                </mxCell>
                <mxCell id="10" style="edgeStyle=none;html=1;exitX=0.5;exitY=1;exitDx=0;exitDy=0;entryX=0.25;entryY=0;entryDx=0;entryDy=0;" edge="1" parent="1" source="3" target="2">
                    <mxGeometry relative="1" as="geometry"/>
                </mxCell>
                <mxCell id="3" value="&lt;div&gt;head address -&amp;gt; 0x6f7900&amp;nbsp; &amp;nbsp;&lt;/div&gt;&lt;div&gt;head data -&amp;gt; 1&lt;/div&gt;&lt;div&gt;head next -&amp;gt; 0&lt;/div&gt;" style="rounded=0;whiteSpace=wrap;html=1;" vertex="1" parent="1">
                    <mxGeometry x="-10" y="90" width="160" height="60" as="geometry"/>
                </mxCell>
                <mxCell id="4" value="&lt;div&gt;new node address-&amp;gt; 0x6f7930&lt;/div&gt;&lt;div&gt;new node data-&amp;gt; 2&lt;/div&gt;&lt;div&gt;new node next-&amp;gt; 0&lt;/div&gt;" style="rounded=0;whiteSpace=wrap;html=1;" vertex="1" parent="1">
                    <mxGeometry x="270" y="260" width="175" height="60" as="geometry"/>
                </mxCell>
                <mxCell id="11" style="edgeStyle=none;html=1;exitX=0;exitY=0.5;exitDx=0;exitDy=0;entryX=1;entryY=0.5;entryDx=0;entryDy=0;" edge="1" parent="1" source="5" target="3">
                    <mxGeometry relative="1" as="geometry"/>
                </mxCell>
                <mxCell id="12" style="edgeStyle=none;html=1;exitX=0.75;exitY=1;exitDx=0;exitDy=0;entryX=0.75;entryY=0;entryDx=0;entryDy=0;" edge="1" parent="1" source="5" target="4">
                    <mxGeometry relative="1" as="geometry"/>
                </mxCell>
                <mxCell id="5" value="&lt;div&gt;temp address2 -&amp;gt; 0x6f7900&lt;/div&gt;&lt;div&gt;temp data -&amp;gt; 1&lt;/div&gt;&lt;div&gt;temp next -&amp;gt; 0x6f7930&lt;/div&gt;" style="rounded=0;whiteSpace=wrap;html=1;" vertex="1" parent="1">
                    <mxGeometry x="250" y="95" width="160" height="50" as="geometry"/>
                </mxCell>
                <mxCell id="6" value="&lt;div&gt;new node address-&amp;gt; 0x6f7940&lt;/div&gt;&lt;div&gt;new node data-&amp;gt; 3&lt;/div&gt;&lt;div&gt;new node next-&amp;gt; 0&lt;/div&gt;" style="rounded=0;whiteSpace=wrap;html=1;" vertex="1" parent="1">
                    <mxGeometry x="510" y="260" width="200" height="60" as="geometry"/>
                </mxCell>
                <mxCell id="7" value="temp address1 -&amp;gt; 0x6f7930" style="rounded=0;whiteSpace=wrap;html=1;" vertex="1" parent="1">
                    <mxGeometry x="380" y="30" width="160" height="50" as="geometry"/>
                </mxCell>
                <mxCell id="13" style="edgeStyle=none;html=1;exitX=0;exitY=0.5;exitDx=0;exitDy=0;entryX=0.96;entryY=0.033;entryDx=0;entryDy=0;entryPerimeter=0;" edge="1" parent="1" source="8" target="4">
                    <mxGeometry relative="1" as="geometry"/>
                </mxCell>
                <mxCell id="14" style="edgeStyle=none;html=1;exitX=0.75;exitY=1;exitDx=0;exitDy=0;entryX=0.85;entryY=0;entryDx=0;entryDy=0;entryPerimeter=0;" edge="1" parent="1" source="8" target="6">
                    <mxGeometry relative="1" as="geometry"/>
                </mxCell>
                <mxCell id="8" value="&lt;div&gt;temp address2 -&amp;gt; 0x6f7930&lt;/div&gt;&lt;div&gt;temp data -&amp;gt; 2&lt;/div&gt;&lt;div&gt;temp next -&amp;gt; 0x6f7940&lt;/div&gt;" style="rounded=0;whiteSpace=wrap;html=1;" vertex="1" parent="1">
                    <mxGeometry x="520" y="95" width="150" height="45" as="geometry"/>
                </mxCell>
            </root>
        </mxGraphModel>
    </diagram>
</mxfile>